<svg width="158" height="27" viewBox="0 0 158 27" fill="none" xmlns="http://www.w3.org/2000/svg">
<path d="M17.1788 26.0387C16.9308 26.0697 16.6518 26.1007 16.4038 26.0077C16.2178 25.9457 16.0628 25.7597 15.9698 25.5737C15.7218 24.8917 15.5668 24.1787 15.3188 23.4967C14.8538 21.9777 14.3578 20.4587 13.8618 18.9087C13.5208 17.7927 13.1798 16.6147 12.7768 15.5297C12.5598 15.9637 12.4048 16.4597 12.2188 16.9247C11.7228 18.1957 11.2578 19.4667 10.8858 20.7997C10.5758 21.8847 10.2968 22.9697 9.9868 24.0857C9.8938 24.4887 9.7388 24.9847 9.3668 25.2017C8.9638 25.4807 8.4058 25.4497 7.9098 25.4807C6.3908 25.5427 4.8718 25.7597 3.3528 25.7287C2.9498 25.7287 2.4228 25.5427 2.3608 25.1397C2.0818 24.6127 2.0198 23.9617 1.8958 23.3727C1.6788 22.1637 1.4928 20.9237 1.3068 19.7147C0.655796 15.1577 0.252796 10.5697 0.0357957 6.01273C0.00479572 5.17573 -0.0262043 4.33873 0.0357957 3.53273C0.0977957 2.81973 -0.0572043 2.01373 0.686796 1.92073C1.9578 1.73473 3.8178 1.70373 5.0888 1.64173C5.9568 1.61073 6.8248 1.64173 7.6928 1.73473C8.1888 1.79672 8.6538 2.04473 8.5298 2.63373C8.4368 3.12973 8.3438 3.65673 8.2508 4.15273C7.8788 7.22173 7.6618 10.3217 7.5998 13.4217C7.9718 11.9337 8.3748 10.4457 8.9018 8.98873C9.0878 8.39973 9.3358 7.81073 9.7388 7.31473C9.8938 7.09772 10.2348 6.97373 10.5138 6.94273C11.6918 6.81873 12.7768 7.00473 13.9548 7.03573C14.2648 7.06673 14.5748 7.12873 14.7298 7.81073C15.5048 10.4457 16.4348 13.0807 17.6128 15.5607C17.5818 14.3207 17.4888 13.0497 17.4888 11.7787C17.4578 9.91873 17.6128 8.05873 17.6748 6.16773C17.7058 5.17573 17.7058 4.15273 17.7678 3.16073C17.8608 2.01373 18.2018 1.79672 19.1008 1.88973C20.7128 2.07573 23.1308 2.13773 24.7738 2.32373C25.7348 2.44773 26.9438 2.63373 26.6338 3.56373C25.7658 6.07473 24.1538 15.3437 23.7818 21.3887C23.6888 22.5047 23.6578 23.6207 23.5338 24.7677C23.4718 25.0777 23.4408 25.4187 23.2858 25.6977C23.1618 25.9767 22.8208 26.0077 22.5108 25.9147C22.4488 25.9147 22.3868 25.9147 22.3248 25.9147C20.6198 25.6977 18.8838 25.8837 17.1788 26.0387Z" fill="black"/>
<path d="M42.5368 26.8757C41.8548 26.8757 41.1108 26.9067 40.5218 26.5967C40.1188 26.3797 39.9328 25.8527 39.9638 25.4187C40.1188 23.5277 40.2118 21.6367 40.3048 19.7457C40.3358 18.9397 40.4908 17.7927 40.4598 16.9867C40.4598 16.9557 40.4598 16.9557 40.4598 16.9247C39.0958 16.7697 37.6698 16.8937 36.3058 16.9557C36.1818 19.4357 36.1818 21.9467 36.1198 24.4267C36.0888 25.0467 36.2748 25.5427 35.7168 25.6977C33.9498 26.1317 31.5008 25.8837 29.7028 25.7597C29.2998 25.7597 27.8118 25.6667 27.4708 25.5117C27.2228 25.3567 27.0678 25.0157 27.0988 24.7367C27.1918 24.1477 27.3158 23.5587 27.3778 23.0007C27.6878 20.3037 27.7498 17.6067 27.9048 14.9097C28.0598 12.1507 28.0598 9.39173 27.9048 6.63273C27.8428 5.54773 27.6568 4.46273 27.4708 3.37772C27.4088 3.03673 27.3778 2.69573 27.5018 2.38573C27.5948 2.16873 27.8428 1.92073 28.1218 1.85873C31.0358 1.30073 33.3298 1.14573 35.8718 1.45573C36.1508 1.48673 36.4298 1.73473 36.5538 1.98273C36.7088 2.26173 36.6778 2.60273 36.6778 2.94372C36.5228 5.60973 36.2438 8.24472 36.0888 10.9107C36.0888 10.9727 36.0888 11.0347 36.0888 11.0657C36.6468 11.0347 37.2048 11.0347 37.7628 11.0037C38.7238 11.0037 39.6538 10.9727 40.5838 11.0037C40.5218 8.43073 40.4908 5.85773 40.5218 3.28473C40.5218 2.44773 40.5218 1.57973 40.5218 0.742726C40.5218 0.153726 41.2658 0.0607251 41.5138 0.0297255C44.4278 -0.0942747 45.4508 0.215725 47.8998 0.122726C48.2098 0.122726 48.5508 0.153726 48.7988 0.308726C48.9848 0.432726 49.0778 0.711726 49.0778 0.928725C49.0468 1.54873 48.9538 2.16873 48.8918 2.78873C48.0548 8.46173 48.0858 14.2587 48.5198 19.9937C48.6128 21.1097 48.6748 22.2567 48.8608 23.3727C49.2638 26.0387 50.1008 26.7207 47.7138 26.7827C46.5358 26.7827 43.6838 26.8757 42.5368 26.8757Z" fill="black"/>
<path d="M68.1573 19.0947C64.4993 27.0617 52.7193 27.1237 50.1773 19.4047C48.4723 14.2277 50.3943 6.01273 54.9823 3.03673C66.3283 -4.27927 73.6133 7.25273 68.1573 19.0947ZM58.4543 9.51573C53.4943 16.2427 59.1053 20.5827 62.3293 13.9797C64.9023 8.74073 61.0893 5.95072 58.4543 9.51573Z" fill="black"/>
<path d="M80.831 24.9847C78.413 25.4187 75.902 25.8217 73.515 25.3567C73.267 25.3257 73.019 25.2017 72.833 25.0467C72.368 25.0467 72.43 24.3957 72.399 23.9617C72.306 22.2877 72.151 20.5827 72.027 18.9087C71.841 16.5837 71.717 14.2277 71.438 11.9027C71.252 10.2597 70.973 8.61673 70.818 6.97373C70.694 5.85773 70.539 4.74173 70.508 3.59473C70.508 3.12973 70.477 2.63373 70.725 2.23072C70.942 1.88973 71.376 1.73473 71.779 1.61073C73.081 1.17673 74.476 0.866726 75.871 0.742726C77.948 0.587726 80.087 0.804725 82.102 1.36273C83.807 1.82773 85.543 2.66472 86.752 3.93573C87.496 4.74173 88.085 5.70273 88.581 6.66372C89.449 8.33773 89.914 10.2287 90.069 12.1197C90.162 13.2047 90.193 14.3207 90.007 15.4057C89.821 16.3667 89.635 17.3277 89.139 18.1957C88.643 19.1257 88.085 20.0557 87.465 20.9237C86.969 21.6057 86.287 22.1327 85.605 22.6287C84.148 23.6517 82.567 24.7057 80.831 24.9847ZM77.917 9.79473C78.103 12.2127 78.165 14.5997 78.289 16.9867C78.444 16.9867 78.568 16.9867 78.723 16.9867C80.149 17.0177 81.048 16.1497 81.885 15.0337C82.195 14.5687 82.35 14.0107 82.443 13.4527C82.598 12.4917 82.567 11.4687 82.381 10.5077C82.226 9.76373 81.916 9.01973 81.358 8.46173C80.986 8.05873 80.428 7.77973 79.901 7.62473C79.002 7.34573 78.599 7.37673 77.7 7.56273C77.793 8.30673 77.855 9.05073 77.917 9.79473Z" fill="#FF4482"/>
<path d="M99.4136 25.3567C98.7006 25.4187 97.6776 25.3877 96.9646 25.3567C95.4146 25.3257 93.8646 25.2637 92.3146 25.2327C91.9426 25.2017 91.6016 25.2327 91.2296 25.1707C90.3616 24.9847 90.7646 23.7447 90.9506 22.8457C92.3766 16.2737 91.6016 6.07473 90.8576 2.88173C90.5166 1.42473 91.0746 1.48673 92.0356 1.42473C94.7636 1.20773 97.7086 1.02173 100.561 1.05273C101.491 1.08372 101.584 1.33173 101.212 2.38573C98.7316 9.32973 99.3826 20.1177 100.065 24.1167C100.189 24.7367 100.127 25.3257 99.4136 25.3567Z" fill="#FF4482"/>
<path d="M116.958 24.4267C113.145 26.8447 105.333 26.1937 101.706 23.5277C99.6596 22.0397 101.923 15.4057 104.124 15.9947C106.511 16.8937 109.642 19.0637 109.797 17.3277C109.921 16.1497 106.604 15.5297 104.527 13.9797C100.001 10.6007 101.706 4.02873 106.883 1.82773C112.215 -0.466274 118.508 1.95173 120.12 7.53173C120.554 8.92673 116.4 11.2517 115.222 11.8717C114.912 12.0267 114.416 12.3367 113.858 11.6237C113.052 10.5387 112.494 8.80272 111.13 8.80272C109.58 8.77173 109.518 9.98073 110.82 10.8487C112.99 12.3367 115.563 12.5847 117.919 14.9097C120.492 17.5137 120.058 22.5047 116.958 24.4267Z" fill="#FF4482"/>
<path d="M135.9 26.8757C135.218 26.8757 134.474 26.9067 133.885 26.5967C133.482 26.3797 133.296 25.8527 133.327 25.4187C133.482 23.5277 133.575 21.6367 133.668 19.7457C133.699 18.9397 133.854 17.7927 133.823 16.9867C133.823 16.9557 133.823 16.9557 133.823 16.9247C132.459 16.7697 131.033 16.8937 129.669 16.9557C129.545 19.4357 129.545 21.9467 129.483 24.4267C129.452 25.0467 129.638 25.5427 129.08 25.6977C127.313 26.1317 124.864 25.8837 123.066 25.7597C122.663 25.7597 121.175 25.6667 120.834 25.5117C120.586 25.3567 120.431 25.0157 120.462 24.7367C120.555 24.1477 120.679 23.5587 120.741 23.0007C121.051 20.3037 121.113 17.6067 121.268 14.9097C121.423 12.1507 121.423 9.39173 121.268 6.63273C121.206 5.54773 121.02 4.46273 120.834 3.37772C120.772 3.03673 120.741 2.69573 120.865 2.38573C120.958 2.16873 121.206 1.92073 121.485 1.85873C124.399 1.30073 126.693 1.14573 129.235 1.45573C129.514 1.48673 129.793 1.73473 129.917 1.98273C130.072 2.26173 130.041 2.60273 130.041 2.94372C129.886 5.60973 129.607 8.24472 129.452 10.9107C129.452 10.9727 129.452 11.0347 129.452 11.0657C130.01 11.0347 130.568 11.0347 131.126 11.0037C132.087 11.0037 133.017 10.9727 133.947 11.0037C133.885 8.43073 133.854 5.85773 133.885 3.28473C133.885 2.44773 133.885 1.57973 133.885 0.742726C133.885 0.153726 134.629 0.0607251 134.877 0.0297255C137.791 -0.0942747 138.814 0.215725 141.263 0.122726C141.573 0.122726 141.914 0.153726 142.162 0.308726C142.348 0.432726 142.441 0.711726 142.441 0.928725C142.41 1.54873 142.317 2.16873 142.255 2.78873C141.418 8.46173 141.449 14.2587 141.883 19.9937C141.976 21.1097 142.038 22.2567 142.224 23.3727C142.627 26.0387 143.464 26.7207 141.077 26.7827C139.899 26.7827 137.047 26.8757 135.9 26.8757Z" fill="#FF4482"/>
<path d="M154.417 17.5137C153.735 18.1027 151.317 17.9787 150.418 17.9167C149.054 17.8237 147.566 17.7927 147.721 16.4597C147.907 15.0027 147.845 13.2977 148.837 12.1817C149.767 11.0967 152.061 9.39173 151.348 8.18273C150.542 6.81873 148.589 8.24473 147.566 9.42273C147.194 9.85673 146.667 10.8487 146.14 10.6937C145.396 10.4767 143.133 7.09772 142.637 6.50873C142.172 5.98173 142.389 5.57873 142.947 4.95873C146.078 1.48673 152.588 -0.528275 155.936 2.78873C159.067 5.91973 158.726 10.6317 154.231 14.0417C153.797 14.3827 154.789 17.1417 154.417 17.5137ZM154.882 22.6597C154.727 25.4497 150.821 26.8447 148.558 24.9537C147.101 23.7447 147.349 21.0167 148.992 19.9317C151.534 18.2577 155.068 19.6217 154.882 22.6597Z" fill="#FF4482"/>
</svg>
